<svg id="Layer_1" data-name="Layer 1" xmlns="http://www.w3.org/2000/svg" viewBox="0 0 69.36 36"><defs><style>.cls-1{fill:#06c;}</style></defs><title>ROCHE_LOGO_36px_BLUE_DIGITAL</title><path class="cls-1" d="M46.92,13.82a3,3,0,0,0-1.79-.51,3.11,3.11,0,0,0-1.88.62V9.38H41V24.21h2.25V16.47a1.25,1.25,0,0,1,1.29-1.17,1.39,1.39,0,0,1,1.15.54A2.81,2.81,0,0,1,46,17.41v6.8H48.2V17.32C48.2,15.3,47.93,14.57,46.92,13.82Z" transform="translate(0)"/><path class="cls-1" d="M27.2,13.31c-2.09,0-3.37,1.33-3.6,3.84,0,.2-.05.57-.06,1.76,0,.86.05,1.57.06,1.75.15,2.34,1.49,3.79,3.6,3.79s3.46-1.47,3.6-3.79c0-.17.06-.89.06-1.75,0-.39,0-1.45-.06-1.75C30.48,14,28.68,13.31,27.2,13.31Zm1.36,7.58c-.07.81-.42,1.66-1.35,1.66s-1.32-.91-1.36-1.69h0s-.06-.5-.06-1.95.06-2.06.06-2.07c0-.81.43-1.63,1.36-1.63s1.34.82,1.35,1.63c0,0,.06.61.06,2.07A16.23,16.23,0,0,1,28.56,20.89Z" transform="translate(0)"/><path class="cls-1" d="M57,18.25c0-.18,0-.47-.06-1.09a5.07,5.07,0,0,0-1-2.66,3.19,3.19,0,0,0-2.58-1.19c-2,0-3.29,1.32-3.54,3.85a15.57,15.57,0,0,0-.06,1.75c0,.86,0,1.58.06,1.75.14,2.31,1.5,3.79,3.54,3.79s3.41-1.45,3.55-3.91H54.73s0,.17,0,.37c-.06.52-.27,1.64-1.37,1.64-.93,0-1.29-.85-1.35-1.69a13.53,13.53,0,0,1-.05-1.42h5S57,18.69,57,18.25Zm-5-.68c0-.49,0-.59,0-.73.06-.89.46-1.63,1.37-1.63,1.08,0,1.33,1.05,1.37,1.63,0,.31,0,.51,0,.73Z" transform="translate(0)"/><path class="cls-1" d="M53.86,0H15.55L0,18.06,15.55,36H53.86l15.5-17.88ZM53,34.3H16.43L2.4,18.11l14-16.29H53L67,18.17Z" transform="translate(0)"/><path class="cls-1" d="M22,19.65c-.1-1.63-.53-2.58-1.37-3.08A3.4,3.4,0,0,0,22,13.41c0-2.88-1.8-3.89-3.9-3.91H14.66V24.21h2.22V17.48h1.24c.71,0,1.52.63,1.64,2.38L20,23.31a6,6,0,0,0,.11.9h2.22a5.64,5.64,0,0,1-.11-.92ZM19.76,13.8a1.71,1.71,0,0,1-1.71,1.78H16.88V11.4H18a1.61,1.61,0,0,1,1.81,1.71c0,.08,0,.17,0,.34A2.85,2.85,0,0,1,19.76,13.8Z" transform="translate(0)"/><path class="cls-1" d="M36,15.21c1,0,1.35.82,1.36,1.63,0,0,0,.2,0,.63H39.6c0-.15,0-.27,0-.34-.25-3.08-2.13-3.82-3.6-3.82-2.1,0-3.37,1.33-3.6,3.84,0,.2-.05.57-.06,1.76,0,.86,0,1.57.06,1.75.14,2.34,1.49,3.78,3.6,3.79s3.39-1.33,3.6-3.79a.86.86,0,0,0,0-.22H37.37q0,.25,0,.42c-.07.82-.35,1.69-1.36,1.69s-1.31-.95-1.37-1.64a18.21,18.21,0,0,1,0-2,19.37,19.37,0,0,1,0-2.07C34.7,15.93,35.06,15.21,36,15.21Z" transform="translate(0)"/></svg>